# xmcd
#
# Track frame offsets:
#	151
#	17147
#	35699
#	51175
#	69275
#	84497
#	105180
#	125854
#	145763
#	161620
#	181999
#
# Disc length: 2681 seconds
#
# Revision: 3
# Processed by: cddbd v1.5.2PL0 Copyright (c) Steve Scherf et al.
# Submitted via: EasyCDDAExtractor 12.0.4.1
#
DISCID=8e0a770b
DTITLE=I-ZAX - ใจถึงใจ
DYEAR=2547
DGENRE=Pop
TTITLE0=เขียนใจให้เป็นเพลง
TTITLE1=กอดพี่ไว้
TTITLE2=ตอกย้ำซ้ำเติม
TTITLE3=คนน่ารัก
TTITLE4=ผอม ดำ แต่จน
TTITLE5=แปลกแต่เจ็บ
TTITLE6=อยู่ก็เหมือนตาย
TTITLE7=บอกสิครับ
TTITLE8=เพื่อสังคม
TTITLE9=หัวใจมีไว้รัก
TTITLE10=ใจทั้งใจ
EXTD=
EXTT0=
EXTT1=
EXTT2=
EXTT3=
EXTT4=
EXTT5=
EXTT6=
EXTT7=
EXTT8=
EXTT9=
EXTT10=
PLAYORDER=
